<svg width="20" height="20" xmlns="http://www.w3.org/2000/svg"><g id="design" stroke="none" stroke-width="1" fill="none" fill-rule="evenodd"><g id="favicon" transform="translate(-162 -22)" fill="#111" fill-rule="nonzero"><g id="logo-eps-kaas" transform="translate(1 18)"><g id="arrow--down" transform="translate(99)"><g id="arrow--right" transform="translate(60 1)"><g id="close"><g id="quote-marks" transform="translate(0 3)"><g id="search" transform="translate(2)"><path d="M11.378 0C6.877 0 3.215 3.662 3.215 8.162a8.14 8.14 0 001.678 4.95L.318 17.688a1.078 1.078 0 00-.318.767 1.078 1.078 0 001.085 1.083c.289 0 .569-.115.768-.315l4.575-4.575a8.14 8.14 0 004.95 1.677c4.5 0 8.162-3.661 8.162-8.162 0-4.5-3.66-8.163-8.162-8.163zm0 14.154a5.998 5.998 0 01-5.991-5.991 5.998 5.998 0 015.991-5.992 5.998 5.998 0 015.991 5.992 5.998 5.998 0 01-5.991 5.991z" id="Shape"/></g></g></g></g></g></g></g></g></svg>